# xmcd
#
# Track frame offsets:
#	150
#	17483
#	41461
#	60409
#	104655
#
# Disc length: 1833 seconds
#
# Revision: 1
# Processed by: cddbd v1.5.2PL0 Copyright (c) Steve Scherf et al.
# Submitted via: audiograbber 1.80
#
DISCID=35072705
DTITLE=Jan Vorwärts - Friesland Hymne
DYEAR=1900
DGENRE=
TTITLE0=Friesland (Radio Version)
TTITLE1=Friesland (Tanzdeel Mix)
TTITLE2=Friesland (ohne Strom Version)
TTITLE3=Friesland (bannig lang Version)
TTITLE4=Daten-CD
EXTD=
EXTT0=
EXTT1=
EXTT2=
EXTT3=
EXTT4=
PLAYORDER=
